# xmcd
# 
# Track frame offsets:
#     150
#     16098
#     31021
#     53777
#     69910
#     86550
#     103733
#     121100
#     132265
#     145392
#     161213
#     174099
# 
# Disc length: 2588
# 
# Revision: 4
# Processed by: cddbd v1.5.2PL0 Copyright (c) Steve Scherf et al.
# Submitted via: fre:ac v1.0.27
# 
DISCID=920a1a0c
DTITLE=The Blind Boys of Alabama - Down In New Orleans
DYEAR=2008
DGENRE=Gospel
TTITLE0=Free At Last
TTITLE1=Make A Better World [with The Hot 8 Brass Band]
TTITLE2=How I Got Over
TTITLE3=You Got To Move [with Bennie Pete and Carl LeBlanc]
TTITLE4=Across The Bridge [with The Preservation Hall Jazz Band]
TTITLE5=You Better Mind [with Carl LeBlanc]
TTITLE6=Down By The Riverside [with The Preservation Hall Jazz Band and Allen Toussaint]
TTITLE7=If I Could Help Somebody [with Allen Toussaint]
TTITLE8=Uncloudy Day [with The Preservation Hall Jazz Band]
TTITLE9=A Prayer
TTITLE10=I've Got A Home
TTITLE11=I'll Fly Away [with The Hot 8 Brass Band]
EXTD=
EXTT0=
EXTT1=
EXTT2=
EXTT3=
EXTT4=
EXTT5=
EXTT6=
EXTT7=
EXTT8=
EXTT9=
EXTT10=
EXTT11=
PLAYORDER=
